Cover:  
http://www.shotpix.com/images/32217792463431148461.jpeg


Release Title: Lord of War (2005) 


Ratings: 7.6/10 |  
http://www.imdb.com/title/tt0399295/


Plot: An arms dealer confronts the morality of his work as he is being chased by an Interpol agent.

Director: Andrew Niccol

Writer: Andrew Niccol

Stars:  Nicolas Cage, Ethan Hawke and Jared Leto

Genres: Crime | Drama | Thriller

					


General
Format                         : MPEG-4
Format profile                 : Base Media / Version 2
Codec ID                       : mp42
File size                      : 742 MiB
Duration                       : 2h 1mn
Overall bit rate mode          : Variable
Overall bit rate               : 853 Kbps

Source                         : Lord Of War.2005.720p.BluRay.x264-REVEiLLE (Thanks!)

Video
ID                             : 1
Format                         : AVC
Format/Info                    : Advanced Video Codec
Format settings, ReFrames      : 5 frames
Codec ID                       : avc1
Codec ID/Info                  : Advanced Video Coding
Duration                       : 2h 1mn
Bit rate mode                  : Variable
Bit rate                       : 752 Kbps
Width                          : 1 280 pixels
Height                         : 528 pixels
Display aspect ratio           : 2.40:1
Frame rate mode                : Variable
Frame rate                     : 23.976 fps
Stream size                    : 655 MiB (88%)
Writing library                : x264 core 125

Audio
ID                             : 2
Format                         : AAC
Format/Info                    : Advanced Audio Codec
Format profile                 : LC
Codec ID                       : 40
Duration                       : 2h 1mn
Bit rate mode                  : Variable
Bit rate                       : 96.0 Kbps
Maximum bit rate               : 184 Kbps
Channel(s)                     : 2 channels
Channel positions              : Front: L R
Sampling rate                  : 48.0 KHz
Compression mode               : Lossy
Stream size                    : 83.6 MiB (11%)
Language                       : English


Subtitle                       : Yes (English)


Screens:

 
http://www.shotpix.com/images/63502984700375149800.png 
http://www.shotpix.com/images/91956247468559377576.png 
http://www.shotpix.com/images/17259416099808352442.png 
http://www.shotpix.com/images/37560050686765386481.png 
http://www.shotpix.com/images/37485636338155311309.png 
http://www.shotpix.com/images/02793325430129420265.png

------------------------------------------------------------------------


Notes:

* Check sample to be sure.
* Best played on VLC Media Player.
* Install shark007 codecs in case of any kind of problem in playback (For non-VLC Media Player users).
* Alternatively, install Core AVC codecs, the fastest decoder that there is coupled with Community Center Codec Pack and play on Windows Media Player Classic.
* Read NFO.
* Help in seeding this torrent as much as you can. 


Greets to: srkfan, VYTO, MgB, staff members at ExtraTorrent, TPB,KAT, 1337x, PublicHD, Ahashare,
SilverTorrent, TorrentMafia, P2PDL, and all others


Encoder Notes: Looking For Early Access To Anything You Can Provide DVDScr, R5, DVDRips, BluRay, Direct Audio, Early Music
Releases, Seedboxes, Links, Dedicated Servers anything u can provide, Advance / Promo CDs/DVDs. If You Got anything to
offer contact me at "contact@tinym.eu"


Facebook Fan Page: www . facebook . com / p2pdl


Enhanced for best viewing experience. Enjoy!